# xmcd
#
# Track frame offsets: 
#        150
#        28308
#        46842
#        60985
#        82064
#        113282
#        138197
#        176965
#        191048
#        207537
#
# Disc length: 2929 seconds
#
# Revision: 2
# Processed by: cddbd v1.5.2PL0 Copyright (c) Steve Scherf et al.
# Submitted via: ExactAudioCopyFreeDBPlugin 1.0
#
DISCID=8a0b6f0a
DTITLE=The Isley Brothers - Live It Up
DYEAR=1974
DGENRE=Rhythm and Blues
TTITLE0=Live It Up (Parts I and II)
TTITLE1=Brown Eyed Girl
TTITLE2=Need a Little Taste of Love
TTITLE3=Lover's Eve
TTITLE4=Midnight Sky (Parts I and II)
TTITLE5=Hello It's Me
TTITLE6=Ain't I Been Good to You (Parts I and II)
TTITLE7=Live It Up (Part I) (single version)
TTITLE8=Midnight Sky (Part I) (single version)
TTITLE9=Ain't I Been Good to You (Part I) (single version)
EXTD=
EXTT0=
EXTT1=
EXTT2=
EXTT3=
EXTT4=
EXTT5=
EXTT6=
EXTT7=
EXTT8=
EXTT9=
PLAYORDER=
